<svg id="status-success-svgrepo-com" xmlns="http://www.w3.org/2000/svg" width="19.75" height="19.75" viewBox="0 0 19.75 19.75">
  <path id="Path_33378" data-name="Path 33378" d="M9.875,19.75A9.875,9.875,0,1,1,19.75,9.875,9.875,9.875,0,0,1,9.875,19.75Zm0-18.231a8.356,8.356,0,1,0,8.356,8.356A8.356,8.356,0,0,0,9.875,1.519Z" transform="translate(0 0)" fill="#81d12b"/>
  <path id="Path_33379" data-name="Path 33379" d="M16.124,29.484a.76.76,0,0,1-.536-.228l-3.494-3.49A.76.76,0,0,1,13.169,24.7l3.49,3.49a.76.76,0,0,1-.536,1.3Z" transform="translate(-7.389 -15.204)" fill="#81d12b"/>
  <path id="Path_33380" data-name="Path 33380" d="M21.759,25.7a.76.76,0,0,1-.536-1.3l5.769-5.765a.76.76,0,0,1,1.075,1.075l-5.773,5.762A.76.76,0,0,1,21.759,25.7Z" transform="translate(-13.023 -11.42)" fill="#81d12b"/>
</svg>
